P3
4 3
255
48 42 33 48 42 33 48 42 33 48 42 33
100 88 69 100 88 69 100 88 69 100 88 69
196 174 136 196 174 136 196 174 136 196 174 136
